<svg viewBox="0 0 2761 991" xmlns="http://www.w3.org/2000/svg"><path d="M232.227 496.238C230.06 444.237 270.361 400.47 322.362 397.87C373.929 395.703 417.697 435.137 420.297 486.705C425.497 538.706 387.796 585.073 335.795 590.273C283.794 595.473 237.427 557.773 232.227 505.772V496.238ZM326.262 748.876C466.664 753.21 583.667 643.141 588 502.738C592.333 362.336 482.265 245.333 341.862 241C336.662 241 331.462 241 326.262 241C185.859 245.333 75.7903 362.769 80.1237 502.738C84.4571 637.074 191.926 744.543 326.262 748.876Z" fill="currentColor"></path>
    <path d="M882.243 493.638C882.243 570.773 828.508 604.574 778.241 604.574C721.906 604.574 678.139 563.406 678.139 497.105C678.139 426.904 724.073 386.169 781.707 386.169C841.508 386.169 882.243 429.937 882.243 493.638ZM779.974 575.973C816.375 575.973 843.242 541.739 843.242 494.938C843.242 459.404 825.475 414.337 780.841 414.337C735.773 414.337 716.706 455.937 716.706 495.372C716.706 541.306 742.707 575.973 779.974 575.973Z" fill="currentColor"></path>
    <path d="M1120.58 538.272C1120.58 559.939 1121.01 579.006 1122.31 595.04H1088.51L1086.78 561.239H1085.91C1071.61 585.507 1045.18 600.24 1017.01 599.807C984.075 599.807 944.641 581.607 944.641 508.372V386.169H982.775V501.872C982.775 541.739 994.908 568.606 1029.14 568.606C1054.71 568.606 1072.48 550.839 1079.41 533.939C1082.01 527.439 1082.88 520.939 1082.88 514.439V386.169H1121.01L1120.58 538.272Z" fill="currentColor"></path>
    <path d="M1317.32 560.806C1328.58 568.173 1348.52 575.973 1367.58 575.973C1395.32 575.973 1408.32 562.106 1408.32 544.773C1408.32 526.572 1397.49 517.039 1369.32 506.639C1331.62 493.205 1314.28 472.405 1314.28 447.704C1314.28 413.904 1341.58 386.603 1386.65 386.603C1407.89 386.603 1426.52 392.67 1438.22 399.603L1428.69 426.904C1415.69 419.104 1400.95 414.77 1385.79 414.77C1363.25 414.77 1351.12 427.77 1351.12 443.371C1351.12 460.704 1363.68 468.505 1390.99 478.905C1426.95 492.772 1445.59 510.972 1445.59 541.739C1445.59 578.573 1416.99 604.574 1367.15 604.574C1346.78 604.574 1326.42 599.807 1308.65 589.84L1317.32 560.806Z" fill="currentColor"></path>
    <path d="M1680.45 561.24C1691.72 568.606 1711.65 576.407 1730.72 576.407C1758.45 576.407 1771.45 562.54 1771.45 545.206C1771.45 527.006 1760.62 517.039 1732.45 506.639C1694.75 493.205 1677.42 472.405 1677.42 447.704C1677.42 413.904 1704.72 386.603 1749.79 386.603C1771.02 386.603 1789.65 392.67 1801.35 399.603L1791.82 427.337C1778.82 419.537 1764.09 415.204 1748.92 415.204C1726.39 415.204 1714.25 428.204 1714.25 443.371C1714.25 460.704 1726.82 468.505 1754.12 478.905C1790.09 492.772 1808.72 510.972 1808.72 542.173C1808.72 578.573 1780.12 605.007 1730.29 605.007C1707.32 605.007 1686.52 598.94 1671.79 590.274L1680.45 561.24Z" fill="currentColor"></path>
    <path d="M2205.67 447.704C2205.67 426.037 2205.23 408.27 2203.93 391.369H2237.3L2239.03 425.17H2240.33C2252.9 400.903 2278.47 385.736 2305.77 386.603C2334.37 386.603 2356.03 403.936 2364.7 428.637H2365.57C2371.2 417.803 2379.44 408.703 2388.97 401.336C2402.4 391.369 2418.44 386.169 2435.34 386.603C2463.07 386.603 2503.8 404.803 2503.8 477.171V600.24H2466.54V481.938C2466.54 441.637 2451.8 417.37 2421.04 417.37C2399.37 417.37 2382.9 433.404 2376.4 452.037C2374.67 458.104 2373.37 464.604 2373.37 471.104V599.807H2336.1V474.571C2336.1 441.204 2321.37 417.37 2292.33 417.37C2268.5 417.37 2251.6 436.437 2245.53 455.504C2243.8 461.571 2242.5 468.071 2242.5 474.138V600.24H2205.23V447.704H2205.67Z" fill="currentColor"></path>
    <path d="M2552.77 561.24C2564.04 568.606 2583.97 576.407 2603.04 576.407C2630.77 576.407 2643.77 562.54 2643.77 545.206C2643.77 527.006 2632.94 517.039 2604.77 506.639C2567.07 493.205 2549.74 472.405 2549.74 447.704C2549.74 413.904 2577.04 386.603 2622.11 386.603C2643.34 386.603 2661.97 392.67 2673.67 399.603L2664.14 427.337C2651.14 419.537 2636.41 415.204 2621.24 415.204C2598.71 415.204 2586.57 428.204 2586.57 443.371C2586.57 460.704 2599.14 468.505 2626.44 478.905C2662.41 492.772 2681.04 510.972 2681.04 542.173C2681.04 578.573 2652.44 605.007 2602.61 605.007C2579.64 605.007 2558.84 598.94 2544.11 590.274L2552.77 561.24Z" fill="currentColor"></path>
    <path d="M1609.39 386.169L1567.79 508.805C1562.59 523.972 1558.25 541.306 1554.35 552.139H1553.49C1550.02 541.306 1544.82 523.105 1540.05 509.672L1494.12 386.169H1452.52L1529.65 579.006C1531.39 583.773 1532.25 586.807 1532.25 588.973C1532.25 591.14 1530.95 594.173 1529.22 598.073C1521.85 614.54 1511.02 628.841 1497.15 640.541C1487.62 648.774 1475.92 655.275 1463.78 658.741L1474.18 690.809C1483.72 689.075 1501.92 682.142 1520.12 666.541C1546.12 644.008 1564.75 606.74 1591.62 535.239L1648.39 386.169H1609.39Z" fill="currentColor"></path>
    <path d="M2022.36 502.305V503.605C2022.79 511.405 2026.26 547.806 2054.43 565.14C2060.93 568.606 2067.86 571.64 2075.23 572.94C2100.36 575.973 2125.93 572.073 2148.46 560.806L2158 589.84C2136.33 599.807 2112.93 605.007 2089.09 605.007C2024.53 605.007 1985.96 562.106 1985.96 498.838C1985.96 436.004 2023.23 386.169 2084.33 386.169C2152.8 386.169 2171 446.404 2171 484.971C2171 491.038 2170.56 496.672 2169.7 502.738L2022.36 502.305ZM2081.29 413.47C2042.73 413.47 2026.26 451.171 2022.79 475.438H2134.16C2134.6 451.171 2124.19 413.47 2081.29 413.47Z" fill="currentColor"></path>
    <path d="M1271.81 557.774C1271.81 557.774 1258.81 567.307 1248.41 567.307C1234.98 566.874 1226.31 558.207 1226.31 532.64V414.771H1280.48V387.471H1226.31V313.369L1186.45 341.536V530.04C1186.45 554.74 1191.21 573.374 1202.05 584.641C1207.25 590.708 1215.05 595.474 1223.71 598.074C1255.35 608.908 1280.48 586.808 1280.48 586.808L1271.81 557.774Z" fill="currentColor"></path>
    <path d="M1950.42 557.774C1950.42 557.774 1937.42 567.307 1927.02 567.307C1913.59 566.874 1904.92 558.207 1904.92 532.64V414.771H1959.09V387.471H1904.49V313.369L1864.62 341.536V530.04C1864.62 554.74 1869.39 573.374 1880.22 584.641C1885.42 590.708 1893.22 595.474 1901.89 598.074C1933.52 608.908 1958.66 586.808 1958.66 586.808L1950.42 557.774Z" fill="currentColor"></path></svg>