<svg viewBox="0 0 2761 991" xmlns="http://www.w3.org/2000/svg"><path d="M224.204 121.455C220.84 121.92 210.751 124.072 201.782 126.239C192.813 128.405 177.805 133.944 168.429 138.548C156.187 144.561 147.526 150.736 137.695 160.463C129.091 168.978 121.656 178.761 117.675 186.809C114.191 193.849 110.247 204.854 108.91 211.266C107.442 218.307 106.929 230.584 107.612 242.283C108.288 253.838 110.431 266.452 112.93 273.569C115.231 280.127 119.161 288.84 121.662 292.93C124.165 297.021 130.832 305.295 136.478 311.319C142.126 317.342 152.137 325.938 158.724 330.422C165.312 334.904 178.561 342.202 188.168 346.639C197.775 351.078 218.983 359.597 235.302 365.574C251.619 371.55 269.371 378.338 274.75 380.662C280.129 382.985 288.684 387.742 293.759 391.233C298.835 394.724 304.748 400.47 306.902 404.002C309.407 408.112 310.82 414.163 310.824 420.819C310.83 428.238 309.518 433.168 306.246 438.023C303.725 441.764 297.532 446.923 292.487 449.485C287.442 452.046 276.613 455.16 268.421 456.404C257.705 458.032 247.944 458.059 233.635 456.502C222.693 455.311 207.622 452.448 200.143 450.139C192.663 447.828 180.698 443.315 173.551 440.112C166.407 436.906 151.034 428.562 139.387 421.569C127.74 414.579 117.522 408.467 116.682 407.99C115.84 407.513 115.153 426.3 115.153 449.735V492.347L135.553 501.942C146.772 507.218 161.219 513.379 167.656 515.631C174.093 517.883 187.157 521.538 196.686 523.751C207.281 526.213 225.496 528.243 243.568 528.98C261.968 529.73 280.047 529.268 291.468 527.754C301.558 526.419 318.019 522.585 328.048 519.239C338.076 515.892 351.835 509.809 358.623 505.718C365.41 501.63 376.008 493.164 382.173 486.907C388.339 480.648 396.336 469.977 399.946 463.19C403.553 456.404 407.911 445.459 409.628 438.868C411.344 432.279 412.748 418.578 412.748 408.42C412.748 396.691 411.368 384.976 408.967 376.317C406.886 368.815 402.072 357.497 398.266 351.163C394.461 344.829 385.284 334.019 377.873 327.141C370.463 320.262 357.326 310.594 348.682 305.658C340.035 300.722 320.875 291.909 306.101 286.072C291.325 280.237 270.206 271.957 259.167 267.675C248.125 263.391 234.397 257.073 228.659 253.633C222.921 250.192 216.13 244.262 213.572 240.453C210.512 235.902 208.916 230.511 208.916 224.729C208.916 217.82 210.255 214.404 215.153 208.826C218.835 204.636 226.148 199.853 232.989 197.16C242.709 193.337 248.545 192.597 269.047 192.589C287.228 192.581 297.997 193.696 311.003 196.932C320.626 199.327 336.22 203.965 345.655 207.241C355.09 210.516 369.556 216.071 377.801 219.587C386.046 223.103 393.154 225.978 393.598 225.978C394.041 225.978 394.403 208.734 394.403 187.657V149.336L373.981 141.785C362.748 137.631 346.927 132.432 338.82 130.231C330.714 128.032 315.936 124.83 305.979 123.116C294.683 121.172 277.057 120.114 259.098 120.306C243.27 120.473 227.567 120.991 224.204 121.455ZM1693.43 124.286C1687.6 126.526 1678.06 132.648 1672.23 137.89C1665.46 143.982 1659.53 151.853 1655.82 159.697C1652.63 166.447 1650.01 175.439 1650.01 179.678C1650.01 183.917 1651.27 190.337 1652.8 193.944C1654.34 197.552 1657.78 202.484 1660.45 204.907C1663.12 207.328 1669.13 210.326 1673.82 211.569C1679.95 213.198 1685.07 213.22 1692.08 211.649C1697.43 210.448 1706.31 207.023 1711.8 204.035C1717.29 201.047 1725.26 194.652 1729.51 189.821C1733.76 184.993 1738.89 177.624 1740.9 173.448C1742.92 169.272 1744.93 160.353 1745.37 153.628C1746.04 143.346 1745.4 140.264 1741.36 134.266C1738.72 130.343 1733.37 125.529 1729.46 123.571C1725.56 121.61 1718.24 120.053 1713.2 120.11C1708.15 120.165 1699.26 122.044 1693.43 124.286ZM718.497 323.804V523.533H761.301H804.106V437.022V350.511L814.196 338.387C819.746 331.72 826.856 324.459 829.993 322.251C833.132 320.044 838.813 316.647 842.618 314.703C846.791 312.571 854.147 311.169 861.155 311.169C868.739 311.169 875.537 312.579 880.735 315.232C885.113 317.466 890.266 321.031 892.186 323.152C894.104 325.274 897.773 331.563 900.339 337.127C904.799 346.8 905.032 349.808 905.653 405.836C906.01 438.061 906.611 464.43 906.991 464.43C907.37 464.43 913.499 461.825 920.611 458.641C927.722 455.456 939.616 450.834 947.044 448.368C954.471 445.904 966.854 442.722 974.561 441.3L988.574 438.715L989.119 386.032C989.555 343.873 989.035 330.868 986.516 320.933C984.785 314.105 981.049 303.934 978.216 298.329C975.38 292.724 970.384 285.169 967.111 281.542C963.839 277.914 957.042 271.8 952.007 267.958C946.972 264.114 937.682 259.035 931.363 256.671C925.044 254.307 913.191 251.444 905.026 250.309C894.818 248.89 885.81 248.917 876.189 250.398C867.965 251.664 856.002 255.575 847.166 259.883C836.954 264.864 827.639 271.626 818.12 280.977L804.106 294.74V209.409V124.076H761.301H718.497V323.804ZM1978.18 194.607C1978.18 260.951 1977.97 265.054 1974.61 263.741C1972.65 262.973 1964.46 260.124 1956.42 257.409C1948.38 254.694 1934.62 251.474 1925.85 250.254C1917.07 249.033 1903.93 248.641 1896.65 249.383C1889.36 250.125 1877.97 252.104 1871.35 253.783C1864.71 255.461 1852.79 260.105 1844.85 264.106C1835.12 268.999 1825.67 276.116 1815.95 285.872C1805.1 296.754 1799.38 304.686 1793.03 317.69C1788.37 327.218 1782.98 340.975 1781.05 348.261C1778.55 357.673 1777.54 369.475 1777.54 389.022C1777.54 408.532 1778.56 420.389 1781.04 429.783C1782.97 437.069 1788.61 451.284 1793.58 461.372C1799.41 473.207 1806.55 483.834 1813.72 491.326C1819.84 497.713 1830.61 506.668 1837.66 511.227C1844.72 515.786 1856.52 521.436 1863.89 523.781C1871.64 526.247 1885.45 528.487 1896.66 529.095C1907.83 529.7 1920.83 529.148 1927.36 527.79C1933.6 526.496 1944.6 522.648 1951.81 519.239C1959.03 515.829 1967.91 510.769 1971.56 507.993L1978.18 502.944V514.258V525.571H2020.98H2063.79V324.824V124.076H2020.98H1978.18V194.607ZM564.546 250.4C557.789 251.35 546.691 253.569 539.885 255.332C533.079 257.097 522.098 260.929 515.482 263.851C508.865 266.774 497.81 273.188 490.91 278.105C484.01 283.023 473.704 292.276 468.009 298.665C462.312 305.057 453.957 317.743 449.44 326.857C444.925 335.972 439.882 349.79 438.236 357.563C436.589 365.338 435.225 380.495 435.205 391.243C435.182 404.195 436.55 416.226 439.259 426.909C441.507 435.777 446.242 448.991 449.779 456.277C454.287 465.563 461.14 474.43 472.697 485.925C483.819 496.985 493.855 504.744 503.529 509.756C511.419 513.842 526.095 519.593 536.142 522.536C550.017 526.6 560.786 528.157 580.91 529.007C600.641 529.843 612.353 529.268 626.772 526.757C637.422 524.902 654.163 520.983 663.972 518.048L681.807 512.713V482.287C681.807 458.743 681.23 452.099 679.259 452.915C677.859 453.495 668.009 456.848 657.373 460.366C646.738 463.883 630.994 467.788 622.388 469.042C610.906 470.715 602.861 470.721 592.155 469.064C584.132 467.823 572.812 464.48 566.996 461.635C561.181 458.79 552.4 452.523 547.486 447.707C542.569 442.893 535.696 432.993 532.21 425.707C526.307 413.362 525.875 410.929 525.875 389.998C525.875 368.733 526.232 366.813 532.563 353.955C536.821 345.308 542.964 337.035 549.477 331.18C555.103 326.124 564.934 319.959 571.326 317.48C579.426 314.34 589.006 312.689 602.94 312.035C614.42 311.493 628.307 312.141 635.553 313.555C642.496 314.908 654.848 318.597 663.005 321.75L677.834 327.485L677.274 296.603L676.711 265.72L665.5 262.109C659.334 260.122 645.576 256.734 634.925 254.58C624.275 252.424 606.848 250.215 596.197 249.667C585.547 249.12 571.303 249.451 564.546 250.4ZM1185.27 250.712C1179.11 251.721 1167.54 255.634 1159.58 259.404C1150.12 263.882 1140.03 271.029 1130.53 279.995L1115.97 293.727V274.119V254.511H1074.18H1032.4V345.74V436.971L1051.25 441.473C1061.62 443.949 1076.87 449.317 1085.14 453.404C1093.42 457.49 1103.73 464.04 1108.08 467.963L1115.97 475.095V412.459V349.826L1123 340.243C1126.87 334.975 1134.69 326.313 1140.37 320.998C1146.06 315.681 1153.87 310.011 1157.73 308.397C1161.6 306.783 1169.86 305.462 1176.1 305.462C1182.34 305.462 1190.39 306.726 1194 308.268C1197.61 309.811 1203.03 313.71 1206.06 316.93C1209.08 320.15 1213.21 326.454 1215.23 330.938C1218.56 338.336 1218.96 347.617 1219.51 431.311L1220.12 523.533H1261.91H1303.71L1303.02 423.159C1302.34 324.055 1302.27 322.622 1297.6 309.966C1295 302.917 1289.39 292.512 1285.13 286.845C1280.87 281.177 1272.7 273.021 1266.98 268.722C1261.26 264.422 1251.57 259.031 1245.46 256.745C1239.34 254.458 1228.57 251.65 1221.53 250.506C1214.48 249.363 1205.96 248.527 1202.6 248.65C1199.23 248.774 1191.44 249.701 1185.27 250.712ZM1460.57 250.612C1453.35 251.546 1441.43 254.169 1434.07 256.441C1426.72 258.713 1415.37 263.564 1408.86 267.222C1402.35 270.881 1392.68 277.512 1387.38 281.961C1382.07 286.41 1374.32 294.206 1370.15 299.285C1365.99 304.364 1359.35 314.664 1355.4 322.174C1351.45 329.682 1346.35 342.98 1344.05 351.726C1340.99 363.377 1339.89 373.881 1339.92 391.06C1339.94 405.648 1341.16 419.114 1343.15 426.726C1344.9 433.451 1350.06 446.546 1354.6 455.825C1360.68 468.253 1366.58 476.409 1376.96 486.797C1387.72 497.55 1395.56 503.126 1409.96 510.263C1420.35 515.413 1435.73 521.474 1444.14 523.735C1454.07 526.404 1469.15 528.257 1487.18 529.021C1504.69 529.763 1521.21 529.278 1531.97 527.705C1541.35 526.335 1556.38 522.895 1565.37 520.062C1574.37 517.229 1585.4 513.057 1589.88 510.791C1594.36 508.525 1602.39 503.831 1607.71 500.358L1617.4 494.046V468.012V441.98L1605.59 450.041C1599.09 454.474 1585.87 461.892 1576.21 466.529C1563.88 472.443 1552.97 475.918 1539.61 478.18C1524.15 480.797 1517.33 480.991 1503.25 479.211C1493.72 478.007 1480.42 474.956 1473.7 472.433C1464.69 469.052 1458.2 464.574 1449.06 455.438C1440.21 446.593 1435.46 439.812 1432.53 431.821C1430.26 425.656 1427.8 416.715 1427.07 411.95L1425.75 403.288H1523.92H1622.09L1620.88 382.048C1619.99 366.261 1618.13 356.189 1613.62 342.815C1610.29 332.921 1605.04 320.342 1601.96 314.866C1598.88 309.387 1590.94 299.122 1584.33 292.052C1577.71 284.98 1567.26 275.851 1561.1 271.765C1554.95 267.679 1542.7 261.705 1533.89 258.489C1525.08 255.275 1510.25 251.688 1500.93 250.521C1491.62 249.353 1481.68 248.513 1478.84 248.656C1476.01 248.798 1467.79 249.679 1460.57 250.612ZM2221.7 250.402C2214.95 251.35 2201.66 254.688 2192.2 257.817C2182.18 261.124 2168.8 267.632 2160.24 273.359C2152.15 278.778 2140.9 288.446 2135.26 294.846C2129.62 301.245 2121.32 313.818 2116.81 322.785C2112.31 331.753 2107.06 345.051 2105.16 352.337C2102.88 361.082 2101.67 373.896 2101.6 390.041C2101.55 404.052 2102.68 419.285 2104.26 425.707C2105.77 431.872 2110.51 444.253 2114.78 453.22C2119.36 462.819 2127.19 474.636 2133.83 481.951C2140.03 488.784 2151.07 498.269 2158.39 503.028C2165.68 507.785 2178.49 514.331 2186.84 517.574C2195.2 520.818 2210.61 524.963 2221.07 526.788C2235.31 529.27 2247.54 529.838 2269.66 529.05C2290.31 528.314 2304.13 526.702 2315.52 523.706C2324.49 521.346 2339.49 515.758 2348.85 511.284C2358.18 506.813 2368.52 501.257 2371.78 498.94L2377.69 494.723V469.152V443.58L2372.09 447.308C2369.01 449.358 2359.86 454.84 2351.74 459.491C2343.63 464.14 2329.4 470.515 2320.15 473.66C2305.66 478.572 2300.01 479.391 2279.85 479.48C2263.44 479.552 2253.05 478.555 2245.2 476.156C2239.04 474.273 2228.97 469.716 2222.86 466.033C2216.72 462.349 2208.22 454.749 2203.96 449.144C2199.7 443.54 2194.38 433.125 2192.16 426.002C2189.94 418.877 2188.13 410.853 2188.13 408.169V403.288H2285.97H2383.81V395.283C2383.81 390.881 2382.81 380.105 2381.6 371.336C2380.4 362.568 2377 348.08 2374.04 339.139C2371.05 330.01 2364.36 316.419 2358.84 308.136C2353.39 300.027 2343.83 288.811 2337.56 283.217C2331.28 277.62 2319.88 269.764 2312.26 265.757C2304.64 261.75 2291.53 256.716 2283.15 254.57C2274.76 252.424 2260.26 250.221 2250.93 249.673C2241.61 249.124 2228.47 249.453 2221.7 250.402ZM2586.62 250.192C2583.26 251.079 2576.51 253.855 2571.64 256.359C2566.77 258.864 2558.71 264.652 2553.76 269.22C2548.81 273.787 2540.74 283.582 2535.82 290.984C2530.93 298.386 2523.86 310.633 2520.15 318.2C2516.42 325.767 2512.67 331.957 2511.79 331.957C2510.9 331.957 2510.18 314.531 2510.18 293.234V254.511H2468.4H2426.61V390.041V525.571H2468.31H2510.02L2510.61 464.939L2511.2 404.307L2522.84 380.525C2531.3 363.279 2537.45 353.717 2545.26 345.726C2551.95 338.888 2559.73 333.302 2565.75 331.009C2572.92 328.274 2578.49 327.622 2587.15 328.502C2595.08 329.307 2604.09 332.358 2615.05 337.951C2623.98 342.493 2631.87 345.524 2632.58 344.688C2633.32 343.851 2638.68 327.697 2644.51 308.79C2654.66 275.839 2654.96 274.249 2651.54 270.471C2649.58 268.302 2640.57 262.865 2631.52 258.383C2620.17 252.756 2611.63 249.982 2603.9 249.41C2597.77 248.953 2589.98 249.306 2586.62 250.192ZM1656.12 390.041V525.571H1697.91H1739.7V390.041V254.511H1697.91H1656.12V390.041ZM1514.72 305.026C1519.35 307.415 1526.87 313.606 1531.43 318.787C1535.99 323.965 1541.11 332.489 1542.8 337.722C1544.5 342.958 1546.15 349.993 1546.48 353.356L1547.07 359.47L1489.12 360.012C1457.24 360.31 1430.44 359.839 1429.57 358.963C1428.69 358.088 1429.18 352.207 1430.65 345.893C1432.12 339.579 1435.7 330.334 1438.63 325.351C1441.55 320.368 1447.2 313.804 1451.18 310.767C1455.16 307.728 1461.86 303.927 1466.06 302.319C1471.07 300.4 1479.3 299.615 1490 300.039C1501.68 300.499 1508.7 301.916 1514.72 305.026ZM2278.3 306.059C2283.4 309.049 2290.1 314.495 2293.2 318.159C2296.3 321.826 2300.54 328.639 2302.62 333.3C2304.68 337.963 2306.96 345.989 2307.65 351.133L2308.94 360.489H2249.28H2189.61L2190.9 351.133C2191.59 345.989 2193.9 337.916 2195.97 333.198C2198.05 328.478 2202.78 321.177 2206.47 316.973C2210.18 312.768 2216.03 307.863 2219.5 306.067C2222.96 304.274 2228.12 302.054 2230.91 301.133C2233.72 300.214 2243.45 299.723 2252.52 300.043C2266.07 300.518 2270.68 301.594 2278.3 306.059ZM1964.42 313.072L1978.18 319.514V385.677V451.838L1971.77 457.227C1968.25 460.192 1960.68 465.039 1954.96 467.998C1946.34 472.453 1941.74 473.399 1928.24 473.491C1914.39 473.584 1910.19 472.747 1900.35 467.915C1893.98 464.786 1885.96 459.029 1882.53 455.12C1879.1 451.211 1874.44 444.398 1872.19 439.979C1869.93 435.561 1866.72 426.681 1865.04 420.245C1863.37 413.811 1862 400.219 1862 390.041C1862 379.863 1863.42 366.078 1865.15 359.409C1866.89 352.739 1870.32 343.264 1872.77 338.354C1875.23 333.442 1881.62 325.478 1886.99 320.654C1892.36 315.83 1900.62 310.457 1905.36 308.717C1911.32 306.526 1919.61 305.719 1932.32 306.092C1947.98 306.552 1952.67 307.574 1964.42 313.072ZM989.594 483.703C987.912 484.109 979.657 485.56 971.249 486.925C962.841 488.291 946.789 492.575 935.578 496.443C924.367 500.311 906.599 507.978 896.092 513.481C885.584 518.984 869.589 528.771 860.545 535.229C851.501 541.686 835.295 555.383 824.528 565.665C813.764 575.947 800.576 589.932 795.223 596.745L785.49 609.131H810.087C823.613 609.131 834.681 609.815 834.681 610.653C834.681 611.489 832.312 619.284 829.418 627.976L824.155 643.777H793.772H763.391L756.232 657.993C752.294 665.811 749.071 672.689 749.071 673.278C749.071 673.867 765.06 674.348 784.601 674.348H820.131L814.483 691.162L808.835 707.976L773.079 708.532L737.323 709.086L735.044 724.408C733.79 732.836 732.781 746.344 732.8 754.425C732.82 762.506 734.184 775.537 735.831 783.383C737.48 791.23 742.045 804.19 745.979 812.185C751.081 822.55 756.915 830.256 766.314 839.048C773.752 846.006 785.081 854.01 792.31 857.417C799.359 860.739 811.727 864.93 819.795 866.729C827.865 868.529 843.313 870 854.127 870C865.977 870 882.013 868.325 894.491 865.783C905.878 863.464 924.367 857.978 935.578 853.592C946.789 849.206 963.083 841.555 971.787 836.593C980.49 831.628 995.134 822.21 1004.33 815.666C1013.53 809.12 1029.84 795.051 1040.59 784.402C1051.33 773.754 1064.49 759.31 1069.82 752.303L1079.52 739.565H1047.8C1023.77 739.565 1016.1 738.948 1016.13 737.018C1016.15 735.618 1018.29 727.592 1020.88 719.185L1025.59 703.9L1063.64 703.345L1101.7 702.791L1108.86 688.569L1116.02 674.348H1075.57C1053.32 674.348 1034.61 673.841 1033.99 673.221C1033.37 672.601 1034.16 667.788 1035.75 662.521C1037.33 657.257 1039.55 649.51 1040.69 645.306L1042.75 637.663H1084.41H1126.08L1127.65 632.059C1128.51 628.977 1129.17 614.073 1129.1 598.94C1129 575.711 1128.26 569.364 1124.32 558.18C1121.76 550.894 1115.63 538.859 1110.7 531.436C1105.77 524.014 1096.91 514.258 1091.02 509.756C1085.12 505.254 1075.66 499.249 1070 496.415C1064.33 493.58 1054.24 489.783 1047.58 487.977C1040.91 486.171 1025.82 484.305 1014.05 483.828C1002.28 483.353 991.275 483.296 989.594 483.703ZM1075.12 563.784C1075.08 565.747 1072.95 576.98 1070.39 588.75L1065.74 610.15L1036.54 611.169C1013.49 611.974 1006.99 612.83 1005.62 615.245C1004.67 616.926 996.999 644.366 988.578 676.223C979.492 710.595 971.228 737.623 968.254 742.698C965.496 747.402 957.934 756.116 951.448 762.061C944.31 768.605 933.218 775.867 923.348 780.461C914.379 784.635 902.18 789.063 896.24 790.302C890.064 791.591 864.161 792.555 835.761 792.555H786.083L792.08 769.627C795.378 757.017 798.578 745.093 799.192 743.132C800.18 739.961 803.434 739.565 828.591 739.565C855.021 739.565 857.217 739.266 862.08 734.98C866.575 731.02 868.966 723.298 879.579 678.424C886.34 649.841 894.149 621.756 896.931 616.017C899.712 610.276 905.869 601.172 910.613 595.783C915.356 590.395 924.573 582.538 931.096 578.324C937.618 574.109 948.633 568.818 955.574 566.568C962.512 564.318 970.484 562.093 973.287 561.624C976.09 561.155 1000.17 560.648 1026.79 560.495C1071.67 560.238 1075.2 560.478 1075.12 563.784ZM1219.92 690.652V806.821H1287.19H1354.45V792.555V778.288H1303.5H1252.54V740.584V702.881H1300.44H1348.34V688.614V674.348H1300.44H1252.54V638.682V603.016H1301.46H1350.38V588.75V574.484H1285.15H1219.92V690.652ZM1433.95 690.652V806.821H1448.22H1462.48V690.652V574.484H1448.22H1433.95V690.652ZM2352.25 597.412C2348.38 601.054 2344.65 606.479 2343.96 609.463C2343.02 613.472 2343.85 616.06 2347.16 619.358C2350.6 622.808 2353.05 623.533 2357.96 622.553C2361.45 621.856 2366.79 618.909 2369.8 616.005C2372.84 613.099 2375.9 608.434 2376.61 605.635C2377.39 602.503 2376.65 598.669 2374.67 595.667C2372.49 592.321 2369.58 590.788 2365.38 590.788C2361.3 590.788 2356.96 592.981 2352.25 597.412ZM1988.88 649.696C1974.03 663.838 1961.87 676.044 1961.87 676.818C1961.87 677.595 1967.61 678.504 1974.61 678.836L1987.35 679.443L1988.37 729.375C1989.23 771.196 1989.95 780.334 1992.85 785.629C1994.76 789.104 1999.55 794.786 2003.5 798.255C2007.45 801.724 2014.15 805.523 2018.38 806.699C2022.62 807.875 2030.88 808.841 2036.74 808.847C2042.6 808.853 2053.38 806.896 2060.69 804.495L2073.98 800.134V786.247V772.362L2063.28 777.343C2055.97 780.746 2048.96 782.332 2041.16 782.344C2031.89 782.36 2028.73 781.437 2024.42 777.442C2021.5 774.736 2018.59 770.381 2017.94 767.762C2017.3 765.145 2017.03 744.202 2017.35 721.223L2017.93 679.443L2041.88 678.868L2065.83 678.296V666.131V653.968H2041.45H2017.08L2016.48 638.976L2015.89 623.982L1988.88 649.696ZM1597.47 651.942C1592.67 652.949 1584.09 656.309 1578.4 659.407C1572.7 662.505 1564.51 669.063 1560.18 673.979C1555.85 678.897 1550.4 688.009 1548.07 694.231C1545.75 700.451 1543.31 712.508 1542.65 721.025C1541.82 731.964 1542.43 740.238 1544.73 749.216C1546.52 756.204 1550.23 766.329 1552.96 771.716C1555.69 777.102 1562.2 785.452 1567.43 790.27C1572.66 795.09 1581.22 800.947 1586.46 803.287C1592.6 806.024 1601.83 807.858 1612.38 808.433C1621.4 808.924 1633.84 808.274 1640.03 806.988C1646.23 805.702 1656.97 801.968 1663.9 798.689L1676.51 792.728V778.406V764.083L1664.79 769.934C1658.34 773.15 1649.44 776.939 1645 778.353C1640.56 779.766 1630.93 780.956 1623.6 780.999C1614.26 781.052 1607.36 779.778 1600.59 776.745C1595.28 774.365 1588.5 769.841 1585.54 766.692C1582.58 763.541 1578.46 757.296 1576.4 752.813C1574.33 748.329 1572.62 742.137 1572.6 739.056L1572.55 733.451H1625.55H1678.55V722.67C1678.55 716.741 1677.16 706.569 1675.47 700.068C1673.77 693.565 1670.03 684.218 1667.14 679.294C1664.26 674.372 1658.99 667.889 1655.44 664.889C1651.89 661.892 1645.29 657.795 1640.78 655.786C1636.26 653.778 1626.63 651.679 1619.37 651.122C1612.12 650.564 1602.26 650.933 1597.47 651.942ZM1821.23 651.3C1818.43 651.769 1811.84 653.529 1806.6 655.213C1801.35 656.896 1793.34 660.97 1788.79 664.268C1784.24 667.565 1777.35 675.08 1773.49 680.968C1769.63 686.855 1764.93 697.064 1763.05 703.655C1760.53 712.523 1759.86 720.999 1760.48 736.264C1761.18 753.44 1762.25 758.813 1766.86 768.389C1769.91 774.714 1776.58 783.738 1781.68 788.442C1786.78 793.148 1796.17 799.435 1802.53 802.419C1813.16 807.402 1816.07 807.822 1838.55 807.614C1853.5 807.475 1866.58 806.252 1872.19 804.473L1881.36 801.561L1881.96 786.866C1882.29 778.786 1882.29 772.174 1881.96 772.176C1881.63 772.176 1876.48 774.031 1870.52 776.297C1864.55 778.563 1854.4 780.97 1847.95 781.643C1839.88 782.487 1832.63 781.82 1824.66 779.505C1818.3 777.654 1809.82 773.273 1805.83 769.765C1801.84 766.258 1796.69 759.699 1794.38 755.191C1792.09 750.683 1789.73 741.817 1789.16 735.491C1788.48 727.973 1789.28 719.98 1791.48 712.425C1793.33 706.064 1797.71 697.592 1801.22 693.599C1804.72 689.605 1811.35 684.391 1815.94 682.013C1822.04 678.854 1827.91 677.709 1837.72 677.76C1848.22 677.815 1853.8 679.101 1863.2 683.633C1869.82 686.827 1875.93 689.788 1876.77 690.214C1877.62 690.642 1878.3 684.137 1878.3 675.758V660.524L1870.55 657.424C1866.29 655.718 1857.41 653.326 1850.81 652.107C1844.22 650.888 1836.01 650.016 1832.57 650.169C1829.14 650.321 1824.03 650.831 1821.23 651.3ZM2214.63 654.493C2209.59 657.182 2201.78 663.909 2197.3 669.44C2192.81 674.974 2187.6 681.781 2185.68 684.567C2182.3 689.515 2182.22 689.22 2182.11 671.8L2182.01 653.968H2167.74H2153.48V730.394V806.821H2167.6H2181.75L2182.4 758.417C2182.99 713.385 2183.34 709.445 2187.43 701.862C2189.86 697.378 2194.45 691.245 2197.63 688.235C2200.81 685.223 2206 681.785 2209.16 680.593C2212.3 679.4 2217.15 678.424 2219.95 678.424C2222.72 678.424 2228.38 680.26 2232.54 682.506C2236.7 684.75 2242.08 688.009 2244.49 689.745C2248.71 692.796 2249.11 692.468 2256.55 680.244L2264.24 667.584L2258.29 662.821C2255 660.2 2249.52 656.715 2246.1 655.078C2242.65 653.44 2236.23 651.538 2231.83 650.851C2225.61 649.885 2221.74 650.707 2214.63 654.493ZM2518.34 651.3C2515.54 651.769 2508.86 653.558 2503.52 655.276C2498.18 656.994 2489.29 661.957 2483.79 666.306C2476.33 672.212 2471.8 678.204 2465.99 689.966C2458.27 705.589 2458.2 705.919 2458.2 730.307C2458.2 753.94 2458.47 755.419 2464.85 768.41C2468.54 775.912 2475.22 785.301 2479.89 789.512C2484.52 793.686 2493.45 799.514 2499.75 802.47C2510.24 807.394 2513.24 807.822 2535.66 807.614C2550.6 807.475 2563.69 806.252 2569.29 804.473L2578.47 801.561L2579.06 786.946L2579.67 772.333L2567.85 776.405C2561.36 778.645 2550.93 781.015 2544.69 781.673C2536.97 782.485 2529.61 781.784 2521.68 779.478C2514.54 777.406 2506.92 773.297 2502.07 768.905C2497.67 764.929 2492.47 757.466 2490.43 752.173C2488 745.906 2486.82 737.719 2486.97 728.356C2487.11 720.194 2488.6 710.925 2490.45 706.694C2492.26 702.626 2496.16 696.394 2499.15 692.847C2502.13 689.299 2508.37 684.438 2512.99 682.044C2519.01 678.923 2525.14 677.68 2534.64 677.654C2545.14 677.625 2550.44 678.846 2560.12 683.527C2566.85 686.778 2573.04 689.788 2573.88 690.214C2574.72 690.642 2575.41 684.137 2575.41 675.758V660.524L2567.66 657.424C2563.4 655.718 2554.52 653.326 2547.91 652.107C2541.33 650.888 2533.11 650.016 2529.69 650.169C2526.24 650.321 2521.15 650.831 2518.34 651.3ZM2345.08 730.394V806.821H2360.37H2375.65V730.394V653.968H2360.37H2345.08V730.394ZM1631.67 679.476C1634.48 680.91 1638.34 683.815 1640.25 685.932C1642.17 688.05 1645.15 693.159 1646.87 697.284C1648.6 701.411 1650.01 707.11 1650.01 709.949V715.109H1611.28C1575.32 715.109 1572.55 714.846 1572.55 711.432C1572.55 709.411 1574.91 703.025 1577.79 697.243C1581.06 690.693 1585.75 685.052 1590.24 682.276C1594.21 679.824 1600.34 677.112 1603.86 676.247C1607.38 675.385 1613.93 675.171 1618.42 675.773C1622.9 676.376 1628.86 678.041 1631.67 679.476Z" fill="currentColor" fill-rule="evenodd" clip-rule="evenodd"></path></svg>