<svg viewBox="0 0 2761 991" xmlns="http://www.w3.org/2000/svg"><path d="M2600.43 353.136H2617.32V343.173H2572.71V353.569H2589.6V394.287H2600.43V353.136ZM2670.17 375.661V394.287H2681V343.173H2668L2658.47 361.8C2656.31 366.131 2654.58 370.03 2654.14 370.03C2654.14 370.03 2653.28 368.297 2651.98 365.698C2651.11 364.399 2650.68 363.099 2649.81 361.366L2640.28 342.74H2627.29V393.854H2637.68V375.228V357.035C2637.68 357.035 2640.72 362.666 2643.75 368.297L2651.11 382.592H2657.18L2664.54 368.297C2666.27 365.265 2667.57 362.233 2668.87 360.067C2669.74 358.334 2670.17 357.468 2670.17 357.468V375.661ZM1382.8 562.789C1386.26 594.843 1413.55 609.571 1449.51 609.571C1482.86 609.571 1503.22 596.576 1503.22 569.72C1503.22 538.532 1475.06 532.9 1446.91 527.702C1441.71 526.836 1436.51 525.537 1431.31 524.67C1395.36 516.44 1350.31 502.146 1350.31 448.433C1350.31 399.918 1386.26 373.928 1442.58 373.928C1493.26 373.928 1529.64 394.72 1542.2 440.203L1502.79 450.599C1495.86 425.042 1476.36 410.314 1442.14 410.314C1408.36 410.314 1392.33 424.176 1392.33 446.7C1392.33 477.022 1422.65 483.519 1460.34 490.883C1499.32 498.247 1545.24 511.675 1545.24 569.72C1545.24 620.4 1509.72 646.39 1449.51 646.39C1404.89 646.39 1353.78 632.096 1342.95 573.618L1382.8 562.789ZM1036.7 379.126H855.202V641.625H1038V603.073H896.353V525.103H1004.21V486.118H896.353V417.678H1036.7V379.126ZM1122.47 447.133H1123.33L1263.25 641.625H1305.26V379.126H1264.11V509.509C1264.11 535.933 1264.54 564.088 1264.98 570.153V571.019H1263.68L1124.2 379.126H1082.18V641.625H1123.33V511.242C1123.33 481.354 1122.9 453.198 1122.47 447.567V447.133ZM1705.94 646.39C1762.25 646.39 1809.47 616.502 1829.83 566.687L1789.11 555.858C1774.38 586.613 1744.06 607.838 1703.78 607.838C1651.8 607.838 1612.38 570.153 1612.38 510.376C1612.38 451.032 1650.06 413.346 1704.64 413.346C1750.56 413.346 1774.81 439.77 1785.64 458.396L1826.36 447.567C1809.04 407.282 1766.15 374.361 1705.94 374.361C1628.4 374.361 1570.36 428.94 1570.36 509.943C1570.79 592.244 1629.27 646.39 1705.94 646.39ZM1915.59 580.549L1890.9 641.625H1847.59L1955.88 379.126H2002.23L2110.09 641.625H2065.9L2041.65 580.549H1915.59ZM2000.93 479.621C1998.76 473.99 1996.16 467.925 1994 462.294C1986.63 443.668 1979.7 426.341 1979.27 426.341H1977.97C1977.54 426.775 1965.41 456.663 1955.88 480.054L1930.75 543.297H2026.48L2000.93 479.621ZM2329.27 464.027C2329.27 409.448 2291.58 379.126 2229.64 379.126H2143.87V641.625H2185.02V548.061H2229.21C2291.58 548.061 2329.27 516.873 2329.27 464.027ZM2287.68 464.027C2287.68 494.349 2268.63 511.675 2230.07 511.675H2184.59V416.812H2230.51C2267.33 416.812 2287.68 432.839 2287.68 464.027ZM2364.79 379.126H2546.28V417.678H2405.94V486.118H2513.8V524.67H2405.94V602.64H2547.15V641.192H2364.79V379.126Z" fill="currentColor"></path>
    <path d="M402.543 179L82 363.962L195.057 668.045L402.543 810.557L609.597 668.478L651.614 555.422L402.543 702.698L270.861 624.728L225.811 490.447L402.543 593.107L692.765 425.472L702.295 419.841L723.087 364.395L402.543 179ZM402.543 483.949L214.116 375.224L402.543 266.067L590.971 374.791L402.543 483.949Z" fill="currentColor"></path></svg>